<svg xmlns="http://www.w3.org/2000/svg" viewBox="0 0 128 128"><path fill="#F90" d="M42.3 63.4c0 1.7.2 3.1.5 4.1.4 1 .9 2.1 1.6 3.3.3.4.4.9.4 1.3 0 .6-.4 1.2-1.1 1.8l-3.7 2.5c-.5.3-1 .5-1.5.5-.6 0-1.1-.3-1.7-.8-2.1-2.2-3.8-4.7-5.1-7.5-.5-1.3-.9-2.5-1.3-3.6-.9 1.1-1.9 2.1-3 3.1-3.3 2.9-7.3 4.4-12 4.4-3.6 0-6.4-1-8.5-3C5.3 67.5 4 64.8 4 61.5c0-3.5 1.3-6.4 3.9-8.6 2.6-2.2 6.1-3.3 10.6-3.3 1.5 0 3 .1 4.6.3 1.6.2 3.3.5 5 .9v-3.2c0-3.3-.7-5.6-2.1-7-1.4-1.4-3.8-2.1-7.2-2.1-1.5 0-3.1.2-4.7.6-1.6.4-3.2.9-4.7 1.6-.7.3-1.2.5-1.5.6-.3.1-.5.1-.7.1-.6 0-.9-.4-.9-1.3v-2.1c0-.7.1-1.2.3-1.5.2-.3.6-.6 1.2-.9 1.5-.8 3.3-1.4 5.4-2 2.1-.5 4.3-.8 6.6-.8 5 0 8.7 1.1 11 3.4 2.3 2.3 3.5 5.7 3.5 10.4V63.4zm-16.6 6.2c1.4 0 2.9-.3 4.5-.8 1.6-.5 3-1.5 4.2-2.8.7-.8 1.2-1.7 1.5-2.7.3-1 .5-2.2.5-3.6v-1.7c-1.3-.3-2.6-.6-4-.7-1.4-.2-2.7-.2-4-.2-2.9 0-5 .6-6.4 1.7-1.4 1.1-2.1 2.7-2.1 4.8 0 1.9.5 3.4 1.5 4.4s2.5 1.6 4.3 1.6zm34.6 4.6c-.8 0-1.3-.1-1.6-.4-.3-.3-.6-.9-.8-1.7L49 44.7c-.2-.8-.3-1.4-.3-1.7 0-.7.3-1 1-1h4.2c.8 0 1.3.1 1.6.4.3.3.5.9.8 1.7l7.7 30.4 7.1-30.4c.2-.8.4-1.4.8-1.7.3-.3.9-.4 1.7-.4h3.4c.8 0 1.3.1 1.7.4.3.3.6.9.7 1.7l7.2 30.8 8-30.8c.2-.8.5-1.4.8-1.7.3-.3.9-.4 1.6-.4h4c.7 0 1 .3 1 1 0 .2 0 .4-.1.7-.1.3-.2.7-.4 1.1l-11.2 27.4c-.2.8-.5 1.4-.8 1.7-.3.3-.9.4-1.6.4h-3.7c-.8 0-1.3-.1-1.7-.4-.3-.3-.6-.9-.7-1.7l-7.1-29.5-7.1 29.5c-.2.8-.5 1.4-.7 1.7-.3.3-.9.4-1.7.4h-3.7zm59.8 1.3c-2.2 0-4.4-.3-6.5-.8-2.1-.5-3.7-1.1-4.8-1.8-.7-.4-1.1-.8-1.2-1.2-.1-.4-.2-.8-.2-1.2V70c0-.9.4-1.3 1-1.3.3 0 .5 0 .8.1.3.1.7.3 1.1.5 1.5.7 3.1 1.2 4.8 1.6 1.7.4 3.4.5 5 .5 2.7 0 4.7-.5 6.2-1.4 1.4-.9 2.2-2.3 2.2-4 0-1.2-.4-2.1-1.2-2.9-.8-.8-2.3-1.5-4.5-2.2l-6.5-2c-3.3-1-5.7-2.6-7.2-4.5-1.5-1.9-2.2-4.1-2.2-6.4 0-1.8.4-3.5 1.2-4.9.8-1.4 1.9-2.7 3.2-3.7 1.3-1 2.8-1.8 4.6-2.3 1.7-.5 3.5-.7 5.4-.7.9 0 1.9.1 2.9.2 1 .1 1.9.3 2.8.5.9.2 1.7.4 2.5.7.8.3 1.4.6 1.8.8.6.4 1 .7 1.3 1.1.2.4.3.8.3 1.4v1.9c0 .9-.3 1.3-1 1.3-.4 0-1-.2-1.9-.6-2.8-1.3-5.9-1.9-9.4-1.9-2.4 0-4.3.4-5.6 1.2-1.4.8-2 2.1-2 3.8 0 1.2.4 2.2 1.3 3 .9.8 2.5 1.6 4.9 2.3l6.4 2c3.2 1 5.6 2.5 7 4.3 1.4 1.8 2.1 4 2.1 6.4 0 1.9-.4 3.6-1.2 5.1-.8 1.5-1.9 2.8-3.3 3.9-1.4 1.1-3.1 1.9-5 2.4-1.9.7-4 .9-6.2.9z"/></svg>