<svg xmlns="http://www.w3.org/2000/svg" viewBox="0 0 128 128"><path fill="#9C033A" d="M115.4 30.7L67.1 2.9c-.8-.5-1.9-.7-3.1-.7-1.2 0-2.3.3-3.1.7l-48 27.9c-1.7 1-2.9 3.5-2.9 5.4v55.7c0 1.9 1.2 4.4 2.9 5.4l48 27.9c.8.5 1.9.7 3.1.7 1.2 0 2.3-.3 3.1-.7l48-27.9c1.7-1 2.9-3.5 2.9-5.4V36.1c0-1.9-1.2-4.4-2.6-5.4z"/><path fill="#fff" d="M85.7 76.8c-2.4 4.1-5.8 7.3-10 9.5-4.2 2.2-8.9 3.3-14.1 3.3-5.4 0-10.3-1.2-14.5-3.7-4.2-2.4-7.5-5.8-9.9-10.1S33.5 66.6 33.5 62s1.2-8.6 3.7-12.5c2.5-3.8 5.9-6.9 10.2-9.1 4.3-2.2 9.1-3.3 14.4-3.3 8 0 14.4 2.2 19.4 6.5l-7.5 8.7c-1.5-1.5-3.3-2.7-5.4-3.6s-4.3-1.4-6.6-1.4c-5 0-9 1.6-12 4.7-3 3.1-4.5 7.1-4.5 11.9s1.5 8.9 4.4 11.9c2.9 3 6.9 4.5 11.9 4.5 2.5 0 4.9-.5 7.1-1.5 2.2-1 4-2.5 5.5-4.4l8.1 8.4zm21.8-1.4h-5v5h-5v-5h-5v-5h5v-5h5v5h5v5zm16 0h-5v5h-5v-5h-5v-5h5v-5h5v5h5v5z"/></svg>