<svg xmlns="http://www.w3.org/2000/svg" viewBox="0 0 128 128"><path fill="#2496ED" d="M124.8 52.1c-4.3-2.5-9.9-2.8-14.7-1.5-.6-5.2-4-9.7-8-12.9l-1.6-1.3-1.4 1.6c-2.7 3.1-3.5 8.3-3.1 12.3.3 2.9 1.2 5.9 3 8.3-1.4.8-2.9 1.9-4.3 2.4-2.8 1-5.9 2-8.9 2H79v-15H65v-15H51v14H37v15H23.2c-3.2 6-4.8 13.8-4.2 21.1.6 8 3.9 15.1 9.3 19.9 6.1 5.3 15.1 8.3 26.9 8.3 25.6 0 44.6-11.8 53.6-33.2 3.5.1 11.1.1 15-7.4l.7-1.4zM79 52h14v14H79V52zm0-16h14v14H79V36zM65 52h14v14H65V52zm0-16h14v14H65V36zM51 52h14v14H51V52zm0-16h14v14H51V36zm-14 16h14v14H37V52z"/></svg>