<svg xmlns="http://www.w3.org/2000/svg" viewBox="0 0 128 128"><path fill="#2496ED" d="M27 76h14v14H27zm16 0h14v14H43zm16 0h14v14H59zm16 0h14v14H75zm16 0h14v14H91zm-64-16h14v14H27zm16 0h14v14H43zm16 0h14v14H59zm16 0h14v14H75zm-48-16h14v14H27zm16 0h14v14H43zm16 0h14v14H59zm64 32c-2.9-5.1-9.5-8-19.3-9.2C121.7 60.2 115 48.1 103 44l-1.7-.6-1.2 1.4c-2.4 2.8-3.4 7.3-3 11.1.3 2.7 1.2 5.4 2.7 7.6-1.3.7-2.8 1.7-3.9 2.2-2.6.9-5.3 1.8-8.1 1.8H18.2c-2.9 5.5-4.5 12.6-3.9 19.4.6 7.4 3.6 13.8 8.6 18.3 5.7 4.9 14.1 7.5 24.7 7.5 24.4 0 41.8-11.3 50.1-31.8 3.2.1 10.4.1 14.1-6.8l.2-.3z"/></svg>