<svg xmlns="http://www.w3.org/2000/svg" viewBox="0 0 128 128"><path fill="#0074BD" d="M52.397 67.476s-3.508 2.043 2.494 2.734c7.265.83 10.979.713 18.98-.807 0 0 2.107 1.32 5.039 2.464C61.764 80.44 32.91 71.38 52.397 67.476zM50.154 57.897s-3.933 2.91 2.074 3.531c7.766.8 13.9.866 24.521-1.175 0 0 1.468 1.488 3.773 2.298C59.211 69.22 27.624 62.978 50.154 57.897z"/><path fill="#EA2D2E" d="M69.802 44.527c4.428 5.094-1.163 9.678-1.163 9.678s11.238-5.802 6.075-13.063c-4.826-6.768-8.52-10.128 11.51-21.72.001-.001-31.467 7.859-16.422 25.105z"/><path fill="#0074BD" d="M89.782 71.965s2.595 2.138-2.858 3.793c-10.363 3.141-43.132 4.089-52.234.126-3.272-1.424 2.863-3.4 4.792-3.817 2.009-.435 3.158-.355 3.158-.355-3.634-2.561-23.488 5.027-10.083 7.195 36.616 5.935 66.784-2.67 57.225-6.942z"/><path fill="#EA2D2E" d="M75.535 0s14.447 14.447-13.703 36.646c-22.587 17.836-5.149 28.003-.008 39.612-13.172-11.88-22.838-22.339-16.349-32.064C55.17 30.316 80.891 23.478 75.535 0z"/></svg>