<svg xmlns="http://www.w3.org/2000/svg" viewBox="0 0 128 128"><path fill="#FF2D20" d="M111.688 11.04c.01.07.016.136.016.204v30.512c0 .613-.328 1.18-.86 1.487L86.15 57.866v25.61c0 .613-.328 1.18-.86 1.488L34.628 114.07a1.74 1.74 0 01-.165.082c-.02.008-.04.022-.06.03a1.727 1.727 0 01-.46.079c-.03 0-.054.01-.083.01-.068 0-.142-.012-.212-.022-.026-.003-.05 0-.076-.007a1.726 1.726 0 01-.5-.178L2.376 95.866a1.72 1.72 0 01-.86-1.488V7.35c0-.067.006-.133.015-.2.004-.024.013-.047.018-.07.01-.046.021-.092.035-.136.015-.042.033-.082.05-.123.02-.04.037-.079.06-.116.025-.038.052-.073.08-.108.028-.035.056-.07.087-.102.033-.03.068-.057.103-.085.035-.025.067-.053.105-.074l31.197-18a1.72 1.72 0 011.719 0l31.197 18c.038.021.07.049.105.074.035.028.07.055.103.085.031.032.059.067.087.102.028.035.055.07.08.108.023.037.04.077.06.116.017.04.035.081.05.123.014.044.025.09.035.136.005.023.014.046.018.07zm-3.43 29.363V14.524L97.285 20.8l-15.97 9.208v25.879zm-27.588 47.449V62.974L65.756 69.04l-15.804 8.899v26.003zm-55.197-74.29v79.985l30.439 17.556V110.1l-16.086-9.175-.014-.009-.014-.008c-.026-.016-.052-.038-.076-.057l-.022-.016c-.03-.02-.055-.047-.083-.07-.012-.013-.028-.022-.04-.034a1.762 1.762 0 01-.076-.088l-.026-.036a1.56 1.56 0 01-.06-.087 1.432 1.432 0 01-.048-.087c-.011-.02-.026-.038-.034-.058a1.47 1.47 0 01-.04-.098 1.49 1.49 0 01-.033-.1c-.007-.022-.019-.042-.024-.065a1.67 1.67 0 01-.022-.14 1.72 1.72 0 01-.014-.146c-.002-.02-.008-.038-.008-.057V16.663zm29.479 73.11l15.97-8.995-15.97-9.208-15.974 9.21zm48.257-27.873l15.97-9.208-15.97-9.21-15.972 9.21zm-60.018-34.68L64 50.536l15.97-9.207L64 32.124zM64 52.32l-15.97-9.208L64 33.906l15.97 9.206z"/></svg>