<svg xmlns="http://www.w3.org/2000/svg" viewBox="0 0 128 128"><path fill="#D4A017" d="M63.996 12.17c-27.428 0-42.833 19.152-42.833 40.29 0 10.33 3.333 21.348 8.667 28.983 0 0 1.48-1.51 3.4-2.183 5.05-1.76 10.4-1.423 13.1.573-1.73 3.78-3.32 7.67-4.42 11.46l-.1.29c-2.67 8.67 7.087 12.9 9.487 5.32.717-2.28 1.617-5.41 2.35-8.16.75 7.64 3.59 14.54 7.16 14.54 3.49 0 6.32-6.47 7.15-14.02.667 2.69 1.517 5.67 2.25 7.96 2.33 7.43 11.81 3.4 9.3-5.28l-.08-.28c-1.04-3.56-2.47-7.12-4.08-10.71 2.79-1.99 8.16-2.27 13.13-.45 1.78.65 3.21 1.99 3.21 1.99 5.33-7.63 8.67-18.65 8.67-28.98-.003-21.13-15.403-40.29-42.833-40.29z"/></svg>