<svg xmlns="http://www.w3.org/2000/svg" viewBox="0 0 128 128"><path fill="#00618A" d="M2.219 95.31c13.028 9.662 22.056 6.55 22.056 6.55l.013-7.569c-3.131 1.131-10.353.863-15.428-2.906L2.219 95.31zM2.688 80.819v6.569c5.375 3.137 15.456 3.375 20.906-1.925l.006-6.588c-5.75 5.319-16.437 4.919-20.912 1.944z"/><path fill="#00618A" d="M23.381 62.062c-7.25.538-11.9 2.35-13.988 5.425-1.4 2.069-1.469 4.45-.194 7.106 2.65 5.556 11.263 8.906 13.6 9.825V78.5c-4.469-2.231-6.688-4.737-6.688-7.469 0-5.887 8.663-7.612 8.663-7.612l-1.393-1.357z"/><path fill="#E48E00" d="M52.281 25.35c-5.894-.087-10.8 1.631-14.006 3.806-3.188 2.169-4.581 5.019-4.2 8.319.394 3.481 2.544 5.962 5.469 7.894 2.219 1.462 4.894 2.725 7.269 3.819l5.212 2.375c5.319 2.444 8.856 5.094 8.919 9.494.069 4.5-4.294 6.825-9.019 7.094-4.844.275-8.888-2-12.4-5.194L37.313 68.2c3.675 3.825 10.563 6.825 17.944 5.875 7.331-1.062 13.35-6.075 12.356-14.525-.5-4.294-2.875-7.35-6.506-9.931-2.394-1.681-5.163-3.038-7.575-4.15l-5.025-2.281c-3.938-1.787-6.462-3.8-6.25-6.706.2-2.512 2.65-4.337 5.756-4.437 3.287-.113 6.306 1.044 9.044 3.169l2.887-3.619c-2.969-2.512-7.225-4.119-11.663-4.245z"/></svg>