<svg xmlns="http://www.w3.org/2000/svg" viewBox="0 0 128 128"><path fill="#83CD29" d="M112.771 30.334L68.148 4.963c-2.507-1.468-5.943-1.468-8.437 0L14.979 30.334C12.457 31.829 10 35.198 10 38.281v51.402c0 3.083 2.457 6.271 4.979 7.75l11.678 6.589c5.679 2.627 7.642 2.719 10.194 2.719 8.427 0 13.22-5.151 13.22-14.111V46.261c0-.794-.538-1.286-1.41-1.286h-5.37c-.886 0-1.411.492-1.411 1.286V92.629c0 3.971-4.116 7.872-10.535 4.545L19.875 90.81c-.524-.286-.897-.775-.897-1.127V38.281c0-.35.373-.842.897-1.12l44.636-25.386a1.235 1.235 0 011.052 0l44.615 25.38c.501.282.907.74.907 1.12v51.402c0 .384-.406.728-.907.994l-44.463 25.272a1.221 1.221 0 01-1.031 0l-11.208-6.587c-.351-.2-.722-.269-1.039-.164-3.426 1.148-4.069 1.244-7.576 2.098-.837.187-2.06.563.532 1.985l14.637 8.616a8.903 8.903 0 004.285 1.09 8.864 8.864 0 004.267-1.09L109.11 89.372c2.5-1.483 4.379-4.655 4.379-7.652V38.281c.001-2.997-1.876-6.267-4.718-7.947z"/></svg>