<svg xmlns="http://www.w3.org/2000/svg" viewBox="0 0 128 128"><path fill="#336791" d="M93.809 92.112c.785-6.533.55-7.492 5.416-6.433l1.235.108c3.742.17 8.637-.602 11.513-1.938 6.191-2.873 9.861-7.668 3.758-6.409-13.924 2.873-14.881-1.842-14.881-1.842 14.703-21.815 20.849-49.508 15.543-56.287C101.696 8.05 82.938 10.69 82.6 10.887l-.08.023c-1.6-.33-3.351-.51-5.271-.51-3.56 0-6.266.948-8.318 2.45l-.24.177S43.294 2.556 44.491 26.216c.251 5.01 7.18 37.905 15.436 27.97 3.02-3.625 5.942-6.687 5.942-6.687.5.198 1.058.378 1.674.535l-.06.218c-.787 4.06-2.755 15.562-.24 22.297-.792.5-1.554 1.03-2.255 1.611-3.26 2.64-9.28 7.516-9.28 14.217 0 6.83 4.308 9.935 7.68 10.353l.1.07s1.65 1.57 4.69 2.21c3.72.79 8.95.94 15.74-.52.62.61 1.29 1.21 2.03 1.78 3.26 2.48 7.3 4.64 13.49 5.41 3.62.45 7.05-.15 9.77-1.35l.14-.07c1.88-.79 4.01-1.96 5.78-3.7 1.16-1.12 2.04-2.57 2.62-4.14 1.3-3.51 1.22-7.49.6-11.5z"/></svg>