<svg xmlns="http://www.w3.org/2000/svg" viewBox="0 0 128 128"><circle cx="64" cy="64" r="11.4" fill="#61DAFB"/><path fill="#61DAFB" d="M64 29.986c20.005 0 37.214 3.573 48.004 9.016C123.269 44.793 128 51.235 128 57.997c0 7.098-5.3 14.002-15.099 19.345C101.899 83.394 83.763 87.003 64 87.003c-19.762 0-37.9-3.609-48.901-9.661C5.3 71.999 0 65.095 0 57.997c0-6.762 4.731-13.204 15.996-18.995C26.786 33.559 43.995 29.986 64 29.986z" opacity=".3"/><path fill="#61DAFB" d="M46.174 43.984c10.002-17.325 22.058-31.003 33.023-38.857C88.31-1.177 96.586-2.664 102.425.662c6.155 3.553 8.22 12.441 5.703 24.976-1.969 9.763-6.576 21.077-13.117 32.414-6.54 11.337-14.108 21.399-21.826 28.616-9.332 8.73-18.395 12.788-24.55 9.234-5.995-3.461-8.155-11.976-5.88-24.02 1.946-10.16 6.593-21.854 13.419-36.898z" opacity=".3"/></svg>