<svg xmlns="http://www.w3.org/2000/svg" viewBox="0 0 128 128"><path fill="#D82C20" d="M121.8 93.1c-6.7 3.5-41.4 17.7-48.8 21.6-7.4 3.8-11.5 3.8-17.3 1-5.9-2.8-43.5-18-50.2-21.2-3.4-1.6-5.1-3-5.1-4.3V79.1c0 0 48.8-10.6 56.7-13.4 7.9-2.7 10.6-2.8 17.3-.3 6.7 2.5 52.5 10.8 52.5 10.8v10.9c.2 1.3-1.4 2.7-5.1 6z"/><path fill="#A41E11" d="M121.8 79c-6.7 3.5-41.4 17.7-48.8 21.6-7.4 3.8-11.5 3.8-17.3 1C49.8 98.8 12.2 83.6 5.5 80.4c-3.4-1.6-5.1-3-5.1-4.3 0-1.4 1.7-2.7 5.1-4.3C12.2 68.5 49.8 53.7 57 50.9c7.2-2.8 11.3-2.8 17.3 0C80.6 53.7 115 68 121.8 71.5c3.4 1.6 5.1 2.9 5.1 4.3-.1 1.4-1.7 2.7-5.1 3.2z"/></svg>